<?xml version="1.0" encoding="UTF-8" standalone="no"?>
<!DOCTYPE svg PUBLIC "-//W3C//DTD SVG 1.1//EN" "http://www.w3.org/Graphics/SVG/1.1/DTD/svg11.dtd">
<svg width="100%" height="100%" viewBox="0 0 374 112" version="1.1" xmlns="http://www.w3.org/2000/svg" xmlns:xlink="http://www.w3.org/1999/xlink" xml:space="preserve" style="fill-rule:evenodd;clip-rule:evenodd;stroke-linejoin:round;stroke-miterlimit:1.41421;">
    <g>
        <path d="M39.894,0C41.659,0.009 43.425,0.062 45.187,0.174C49.089,0.423 52.977,0.947 56.793,1.808C60.312,2.602 63.768,3.684 67.095,5.081C69.07,5.91 70.993,6.853 72.862,7.897L73.079,8.019C73.373,8.215 73.46,8.25 73.707,8.506C74.265,9.084 74.545,9.896 74.462,10.696C74.426,11.05 74.378,11.131 74.267,11.466L68.502,25.388C68.343,25.704 68.319,25.795 68.094,26.071C67.926,26.278 67.728,26.46 67.507,26.61C66.954,26.986 66.271,27.149 65.607,27.063C65.475,27.046 65.344,27.019 65.216,26.983C64.945,26.907 64.672,26.771 64.417,26.658C64.278,26.597 64.139,26.536 64.001,26.475C63.724,26.355 63.448,26.236 63.171,26.118C62.355,25.773 61.535,25.437 60.709,25.117C58.999,24.455 57.267,23.851 55.512,23.319C52.189,22.312 48.781,21.559 45.327,21.178C44.025,21.034 42.719,20.945 41.409,20.911C40.734,20.893 40.058,20.894 39.382,20.909C38.328,20.933 37.274,20.996 36.226,21.117C34.652,21.297 33.08,21.6 31.589,22.144C30.955,22.375 30.337,22.651 29.752,22.987C29.36,23.212 28.981,23.464 28.631,23.751C28.307,24.018 28.008,24.315 27.74,24.638C26.767,25.806 26.23,27.269 25.947,28.747C25.851,29.25 25.783,29.759 25.737,30.268C25.711,30.559 25.689,30.851 25.68,31.143C25.675,31.307 25.684,31.473 25.691,31.637C25.702,31.915 25.721,32.193 25.751,32.47C25.894,33.784 26.275,35.084 27.019,36.188C27.193,36.447 27.386,36.694 27.595,36.927C28.484,37.918 29.642,38.628 30.861,39.139C31.338,39.34 31.827,39.507 32.321,39.66C32.589,39.759 32.588,39.759 32.857,39.855C33.817,40.193 34.784,40.514 35.751,40.832C36.833,41.187 37.916,41.536 38.999,41.885C41.958,42.832 44.918,43.775 47.877,44.722C48.306,44.86 48.736,44.996 49.165,45.135C49.912,45.377 50.655,45.634 51.395,45.898C53.466,46.637 55.511,47.453 57.509,48.371C59.199,49.149 60.856,50.001 62.458,50.949C65.452,52.722 68.28,54.844 70.589,57.461C71.671,58.687 72.622,60.026 73.433,61.445C74.294,62.955 74.996,64.554 75.55,66.202C76.435,68.834 76.944,71.582 77.185,74.345C77.294,75.585 77.351,76.83 77.358,78.074C77.368,79.719 77.297,81.363 77.113,82.998C76.787,85.885 76.115,88.739 75.021,91.435C74.67,92.301 74.276,93.149 73.839,93.975C73.139,95.301 72.33,96.569 71.421,97.762C70.06,99.548 68.479,101.162 66.741,102.582C65.707,103.428 64.619,104.207 63.493,104.925C62.544,105.531 61.565,106.092 60.564,106.608C59.886,106.958 59.197,107.287 58.5,107.596C53.286,109.905 47.627,111.074 41.961,111.52C40.962,111.599 39.962,111.656 38.961,111.692C37.724,111.737 36.486,111.75 35.247,111.737C30.593,111.687 25.941,111.24 21.375,110.327C16.624,109.377 11.976,107.919 7.548,105.95C5.942,105.236 4.365,104.455 2.823,103.612C2.416,103.389 2.012,103.162 1.61,102.931C1.403,102.812 1.227,102.717 1.035,102.563C0.928,102.478 0.827,102.384 0.734,102.284C0.266,101.78 0.001,101.105 0,100.416C0,100.05 0.041,99.961 0.121,99.607L4.762,84.49C4.811,84.363 4.851,84.233 4.909,84.111C5.027,83.865 5.18,83.639 5.363,83.438C5.547,83.238 5.76,83.066 5.994,82.928C6.581,82.581 7.289,82.465 7.957,82.605C8.089,82.633 8.22,82.671 8.347,82.718C8.579,82.804 8.717,82.888 8.92,82.999C9.118,83.108 9.317,83.215 9.517,83.322C9.784,83.464 10.052,83.605 10.321,83.744C11.477,84.337 12.649,84.898 13.839,85.421C16.144,86.435 18.507,87.315 20.909,88.07C22.51,88.574 24.127,89.025 25.763,89.399C28.352,89.991 30.984,90.399 33.634,90.586C34.583,90.653 35.534,90.692 36.486,90.701C37.554,90.711 38.623,90.682 39.688,90.596C41.375,90.46 43.062,90.185 44.677,89.667C45.707,89.337 46.708,88.904 47.63,88.335C48.678,87.688 49.616,86.86 50.359,85.876C50.976,85.059 51.452,84.142 51.789,83.175C52.139,82.171 52.343,81.121 52.444,80.063C52.486,79.621 52.511,79.178 52.519,78.734C52.533,78.056 52.506,77.38 52.402,76.709C52.261,75.807 51.985,74.928 51.566,74.115C51.154,73.316 50.609,72.592 49.978,71.952C49.128,71.089 48.132,70.379 47.082,69.78C45.689,68.985 44.194,68.379 42.671,67.884C42.3,67.763 41.926,67.653 41.552,67.542C40.974,67.369 40.397,67.195 39.819,67.025C38.34,66.591 36.86,66.159 35.381,65.726C34.695,65.523 34.009,65.32 33.324,65.116C31.401,64.537 29.48,63.952 27.567,63.342C26.79,63.094 26.013,62.842 25.24,62.581C24.498,62.33 23.758,62.071 23.027,61.789C22.815,61.713 22.604,61.637 22.392,61.56C21.511,61.232 20.637,60.888 19.775,60.513C18.037,59.759 16.343,58.897 14.725,57.91C13.025,56.874 11.409,55.698 9.923,54.372C8.352,52.969 6.929,51.398 5.71,49.679C4.85,48.466 4.092,47.182 3.445,45.844C2.747,44.4 2.179,42.893 1.738,41.351C0.924,38.506 0.546,35.55 0.498,32.595C0.441,29.128 0.809,25.636 1.777,22.3C2.337,20.367 3.099,18.493 4.067,16.728C5.025,14.982 6.182,13.349 7.507,11.862C8.721,10.501 10.073,9.264 11.523,8.158C12.712,7.25 13.962,6.42 15.258,5.673C16.261,5.095 17.292,4.567 18.345,4.086C22.181,2.335 26.29,1.237 30.456,0.629C33.131,0.239 35.83,0.052 38.532,0.007C38.986,0.002 39.439,-0.001 39.894,0ZM260.717,110.347L198.139,110.347C197.759,110.317 197.656,110.332 197.29,110.213C197.015,110.124 196.756,109.992 196.523,109.822C196.056,109.483 195.702,108.997 195.524,108.447C195.405,108.08 195.419,107.978 195.389,107.597L195.389,4.59C195.419,4.209 195.405,4.106 195.524,3.74C195.613,3.465 195.745,3.207 195.915,2.973C196.254,2.506 196.74,2.153 197.29,1.974C197.656,1.855 197.759,1.869 198.139,1.84L260.577,1.84C260.712,1.849 260.846,1.859 260.981,1.869C261.331,1.948 261.427,1.949 261.754,2.104C262.493,2.454 263.048,3.132 263.246,3.926C263.333,4.277 263.315,4.371 263.323,4.73L262.55,19.847C262.503,20.214 262.512,20.313 262.382,20.663C262.089,21.454 261.431,22.078 260.626,22.331C260.271,22.442 260.172,22.429 259.803,22.457L219.944,22.457L219.944,43.535L257.694,43.535C258.075,43.565 258.177,43.55 258.544,43.669C259.093,43.848 259.579,44.201 259.919,44.668C260.088,44.902 260.22,45.161 260.309,45.435C260.429,45.802 260.414,45.904 260.444,46.285L260.444,61.402C260.414,61.783 260.429,61.885 260.309,62.252C260.131,62.801 259.778,63.287 259.31,63.627C259.077,63.796 258.818,63.928 258.544,64.017C258.177,64.136 258.075,64.122 257.694,64.152L219.944,64.152L219.944,89.66L261.35,89.66C261.706,89.686 261.801,89.673 262.145,89.777C262.403,89.855 262.648,89.97 262.872,90.119C263.434,90.493 263.846,91.071 264.014,91.725C264.103,92.074 264.087,92.168 264.098,92.524L263.465,107.712C263.421,108.081 263.431,108.181 263.303,108.534C263.014,109.332 262.355,109.964 261.545,110.22C261.188,110.333 261.089,110.319 260.717,110.347ZM296.315,110.347L275.432,110.347C275.291,110.336 275.148,110.336 275.008,110.314C274.726,110.27 274.453,110.183 274.199,110.055C273.944,109.927 273.711,109.761 273.508,109.561C272.892,108.959 272.592,108.081 272.707,107.228C272.746,106.946 272.827,106.671 272.95,106.414C273.011,106.286 273.092,106.168 273.162,106.045L308.186,54.841L275.814,6.111L275.607,5.742C275.558,5.609 275.499,5.48 275.46,5.345C275.382,5.073 275.347,4.79 275.355,4.507C275.377,3.797 275.679,3.111 276.189,2.616C276.392,2.419 276.624,2.254 276.878,2.128C277.131,2.002 277.402,1.916 277.682,1.872C277.822,1.85 277.964,1.85 278.104,1.84L299.55,1.84C299.681,1.849 299.812,1.858 299.944,1.868C300.073,1.896 300.204,1.915 300.33,1.953C300.71,2.065 301.064,2.26 301.362,2.521C301.627,2.754 301.666,2.839 301.874,3.121L323.84,37.884L346.463,3.09L346.698,2.779C346.791,2.688 346.877,2.589 346.975,2.504C347.272,2.249 347.622,2.059 347.998,1.95C348.332,1.852 348.423,1.864 348.768,1.84L369.089,1.84C369.23,1.85 369.372,1.851 369.512,1.872C369.793,1.916 370.065,2.003 370.319,2.13C370.573,2.257 370.805,2.423 371.009,2.621C371.623,3.22 371.927,4.094 371.815,4.945C371.779,5.227 371.699,5.501 371.578,5.758C371.518,5.886 371.438,6.004 371.368,6.127L338.312,55.132L373.185,106.043L373.398,106.412C373.449,106.545 373.511,106.674 373.552,106.81C373.633,107.083 373.672,107.367 373.666,107.652C373.652,108.367 373.352,109.06 372.842,109.561C372.638,109.76 372.405,109.927 372.151,110.055C371.896,110.183 371.623,110.27 371.342,110.314C371.201,110.336 371.059,110.336 370.917,110.347L348.909,110.347C348.564,110.323 348.472,110.335 348.138,110.237C347.636,110.09 347.181,109.8 346.838,109.406C346.752,109.308 346.681,109.198 346.602,109.095L322.869,72.532L298.607,109.117L298.371,109.424C298.126,109.663 298.075,109.739 297.783,109.923C297.455,110.13 297.085,110.266 296.701,110.32C296.574,110.338 296.444,110.338 296.315,110.347ZM108.148,110.336L90.852,110.336C90.471,110.306 90.368,110.32 90.002,110.201C89.452,110.022 88.966,109.669 88.627,109.202C88.457,108.969 88.325,108.71 88.236,108.435C88.117,108.069 88.132,107.966 88.102,107.586L88.102,4.578C88.132,4.197 88.117,4.095 88.236,3.728C88.415,3.179 88.768,2.693 89.235,2.353C89.469,2.183 89.727,2.052 90.002,1.962C90.368,1.843 90.471,1.858 90.852,1.828L111.102,1.828C111.232,1.837 111.363,1.847 111.494,1.856C111.622,1.884 111.752,1.903 111.878,1.94C112.256,2.051 112.608,2.244 112.905,2.502C113.17,2.732 113.21,2.816 113.418,3.096C114.234,4.372 115.052,5.647 115.87,6.922C122.463,17.186 129.082,27.433 135.701,37.679C139.285,43.228 142.869,48.776 146.455,54.323C149.685,59.321 152.916,64.319 156.156,69.311C156.485,69.814 156.816,70.316 157.148,70.818C157.483,71.322 157.817,71.826 158.153,72.329C158.074,68.446 157.997,64.563 157.921,60.68C157.898,59.426 157.872,58.172 157.854,56.918L157.852,56.693L157.852,4.578L157.885,4.148C157.975,3.776 157.976,3.673 158.151,3.329C158.48,2.684 159.063,2.186 159.752,1.962C160.118,1.843 160.221,1.858 160.602,1.828L177.969,1.828C178.35,1.858 178.452,1.843 178.819,1.962C179.093,2.052 179.352,2.183 179.585,2.353C180.053,2.693 180.406,3.179 180.584,3.728C180.703,4.095 180.689,4.197 180.719,4.578L180.719,107.586C180.689,107.966 180.703,108.069 180.584,108.435C180.495,108.71 180.363,108.969 180.194,109.202C179.854,109.669 179.368,110.022 178.819,110.201C178.452,110.32 178.35,110.306 177.969,110.336L157.438,110.336C157.091,110.311 156.999,110.323 156.662,110.224C156.158,110.076 155.702,109.782 155.358,109.385C155.273,109.286 155.202,109.176 155.123,109.071L110.623,39.729C110.657,41.044 110.689,42.36 110.72,43.675C110.744,44.765 110.768,45.855 110.79,46.944C110.843,49.699 110.889,52.453 110.898,55.208L110.898,55.693L110.898,107.586L110.865,108.016C110.775,108.387 110.774,108.491 110.599,108.834C110.27,109.479 109.687,109.977 108.998,110.201C108.632,110.32 108.53,110.306 108.148,110.336ZM257.683,7.34L200.889,7.34L200.889,104.847L258.08,104.847L258.483,95.16L217.194,95.16C216.813,95.13 216.711,95.144 216.344,95.025C215.795,94.847 215.309,94.494 214.969,94.026C214.8,93.793 214.668,93.534 214.579,93.26C214.46,92.893 214.474,92.791 214.444,92.41L214.444,61.402C214.474,61.021 214.46,60.919 214.579,60.552C214.757,60.003 215.11,59.517 215.578,59.177C215.811,59.008 216.07,58.876 216.344,58.787C216.711,58.667 216.813,58.682 217.194,58.652L254.944,58.652L254.944,49.035L217.194,49.035C216.813,49.005 216.711,49.019 216.344,48.9C215.795,48.722 215.309,48.369 214.969,47.901C214.8,47.668 214.668,47.409 214.579,47.135C214.46,46.768 214.474,46.666 214.444,46.285L214.444,19.707C214.474,19.326 214.46,19.224 214.579,18.857C214.757,18.307 215.11,17.821 215.578,17.482C215.811,17.312 216.07,17.18 216.344,17.091C216.711,16.972 216.813,16.987 217.194,16.957L257.19,16.957L257.683,7.34ZM298.034,7.34L283.233,7.34L313.793,53.341C313.97,53.656 314.034,53.728 314.138,54.077C314.294,54.599 314.29,55.164 314.127,55.684C314.018,56.032 313.954,56.103 313.772,56.415L280.645,104.847L294.839,104.847L320.601,65.999C320.687,65.889 320.765,65.772 320.859,65.669C321.235,65.255 321.737,64.962 322.283,64.838C322.648,64.755 322.745,64.776 323.116,64.778C323.254,64.8 323.391,64.822 323.529,64.844C323.662,64.886 323.799,64.919 323.928,64.971C324.316,65.129 324.667,65.376 324.946,65.689C325.039,65.793 325.115,65.911 325.2,66.022L350.402,104.847L365.7,104.847L332.718,56.698C332.536,56.384 332.47,56.312 332.361,55.962C332.198,55.438 332.196,54.87 332.356,54.345C332.462,53.994 332.527,53.922 332.707,53.606L363.916,7.34L350.26,7.34L326.113,44.479C326.027,44.591 325.95,44.71 325.856,44.815C325.667,45.026 325.447,45.206 325.203,45.35C324.96,45.493 324.695,45.598 324.419,45.661C323.728,45.819 322.988,45.699 322.381,45.331C322.139,45.184 321.921,45.001 321.735,44.788C321.643,44.682 321.567,44.562 321.483,44.449L298.034,7.34Z"/>
    </g>
</svg>
